<svg version="1.1" xmlns="http://www.w3.org/2000/svg" xmlns:xlink="http://www.w3.org/1999/xlink" width="48" height="48" viewBox="0,0,256,256"><g fill="#ff6347" fill-rule="nonzero" stroke="none" stroke-width="1" stroke-linecap="butt" stroke-linejoin="miter" stroke-miterlimit="10" stroke-dasharray="" stroke-dashoffset="0" font-family="none" font-weight="none" font-size="none" text-anchor="none" style="mix-blend-mode: normal"><g transform="translate(-0.13333,255.46667) scale(0.26667,0.26667)"><path d="M481,-158c-87.33333,0 -162.5,-31.5 -225.5,-94.5c-63,-63 -94.5,-138.16667 -94.5,-225.5v-45l-80,80l-39,-39l149,-149l149,149l-39,39l-80,-80v45c0,71.33333 25.5,132.5 76.5,183.5c51,51 112.16667,76.5 183.5,76.5c19.33333,0 37.66667,-1.66667 55,-5c17.33333,-3.33333 33.66667,-8.33333 49,-15l43,43c-24,13.33333 -48.16667,22.83333 -72.5,28.5c-24.33333,5.66667 -49.16667,8.5 -74.5,8.5zM770,-327l-149,-149l40,-40l79,79v-41c0,-71.33333 -25.5,-132.5 -76.5,-183.5c-51,-51 -112.16667,-76.5 -183.5,-76.5c-19.33333,0 -37.66667,1.83333 -55,5.5c-17.33333,3.66667 -33.66667,8.16667 -49,13.5l-43,-43c24,-13.33333 48.16667,-22.66667 72.5,-28c24.33333,-5.33333 49.16667,-8 74.5,-8c87.33333,0 162.5,31.5 225.5,94.5c63,63 94.5,138.16667 94.5,225.5v43l80,-80l39,39z"></path></g></g></svg>